<?xml version="1.0" encoding="UTF-8"?>
<svg width="128" height="128" viewBox="0 0 128 128" xmlns="http://www.w3.org/2000/svg" role="img" aria-label="UNI">
  <rect x="0" y="0" width="128" height="128" rx="16" fill="#FF007A"/>
  <g fill="#fff" transform="translate(64,64)">
    <path d="M-28 12c0-18 14-32 32-32 6 0 12 2 17 5-3-1-7-1-10-1-17 0-30 11-30 28 0 0 0 0 0 0z" opacity=".85"/>
    <path d="M18-8c6 3 10 9 10 16 0 10-8 18-18 18H-6c-7 0-12-5-12-12s5-12 12-12h14c2 0 4-2 4-4 0-3-3-5-6-4l-7 2c0-6 6-8 10-8 3 0 6 1 9 4z"/>
  </g>
</svg>
